<svg xmlns="http://www.w3.org/2000/svg" width="48" height="48" fill="none" viewBox="0 0 48 48"><path fill="#fff" d="M39.36 0H8.64A8.64 8.64 0 0 0 0 8.64v30.72A8.64 8.64 0 0 0 8.64 48h30.72A8.64 8.64 0 0 0 48 39.36V8.64A8.64 8.64 0 0 0 39.36 0Z"/><path fill="#000" d="M36.65 4.235h-25.3a7.115 7.115 0 0 0-7.115 7.116v25.298a7.115 7.115 0 0 0 7.116 7.116H36.65a7.115 7.115 0 0 0 7.115-7.116V11.351a7.115 7.115 0 0 0-7.115-7.116ZM39.02 36.65a2.372 2.372 0 0 1-2.371 2.372h-25.3A2.372 2.372 0 0 1 8.98 36.65V11.351a2.372 2.372 0 0 1 2.372-2.372H36.65a2.372 2.372 0 0 1 2.371 2.372v25.298ZM20.838 15.303a3.162 3.162 0 1 1-6.324 0 3.162 3.162 0 0 1 6.324 0Zm12.65 0a3.163 3.163 0 1 1-6.326 0 3.163 3.163 0 0 1 6.325 0ZM20.837 24a3.162 3.162 0 1 1-6.325 0 3.162 3.162 0 0 1 6.325 0Zm12.65 0a3.163 3.163 0 1 1-6.327 0 3.163 3.163 0 0 1 6.326 0Zm-12.65 8.697a3.163 3.163 0 1 1-6.325 0 3.163 3.163 0 0 1 6.325 0Zm12.65 0a3.163 3.163 0 1 1-6.327 0 3.163 3.163 0 0 1 6.32 0Z" /></svg>
